<svg version="1.2" xmlns="http://www.w3.org/2000/svg" viewBox="0 0 644 32" width="644" height="32">
	<title>title-bar-svg</title>
	<defs>
		<clipPath clipPathUnits="userSpaceOnUse" id="cp1">
			<path d="m0 0h644v31.11h-644z"/>
		</clipPath>
		<clipPath clipPathUnits="userSpaceOnUse" id="cp2">
			<path d="m556.89 5.44h74.67v18.67h-74.67z"/>
		</clipPath>
		<clipPath clipPathUnits="userSpaceOnUse" id="cp3">
			<path d="m74.67 5.44h76.22v18.67h-76.22z"/>
		</clipPath>
		<clipPath clipPathUnits="userSpaceOnUse" id="cp4">
			<path d="m15.56 10.89h40.44v9.33h-40.44z"/>
		</clipPath>
		<clipPath clipPathUnits="userSpaceOnUse" id="cp5">
			<path d="m234.11 4.67h175.78v21.77h-175.78z"/>
		</clipPath>
		<clipPath clipPathUnits="userSpaceOnUse" id="cp6">
			<path d="m395.5 10.11h10.11v10.89h-10.11z"/>
		</clipPath>
	</defs>
	<style>
		.s0 { fill: #25334d } 
		.s1 { fill: #b7b7b7 } 
		.s2 { fill: #5a5a5a } 
		.s3 { fill: #ed6a5e } 
		.s4 { opacity: .1;fill: none;stroke: #000000;stroke-width: .8 } 
		.s5 { fill: #f4bd50 } 
		.s6 { fill: #61c454 } 
		.s7 { fill: #3c5175 } 
		.s8 { fill: #e3e3e3 } 
		.s9 { fill: #ffffff } 
	</style>
	<g id="Clip-Path" clip-path="url(#cp1)">
		<g id="Layer">
			<path id="Layer" class="s0" d="m0 12.4c0-4.3 0-6.5 0.8-8.2 0.8-1.4 2-2.6 3.4-3.4 1.7-0.8 3.9-0.8 8.2-0.8h619.2c4.3 0 6.5 0 8.2 0.8 1.4 0.8 2.6 2 3.4 3.4 0.8 1.7 0.8 3.9 0.8 8.2v18.7h-644z"/>
			<g id="Clip-Path" clip-path="url(#cp2)">
				<g id="Layer">
					<path id="Layer" class="s1" d="m566.2 16.6c0.4 0 0.6-0.2 0.6-0.6v-6.5-0.9l0.4 0.5 0.9 0.9q0.1 0.2 0.4 0.2c0.3 0 0.5-0.2 0.5-0.5q0-0.3-0.2-0.4l-2.1-2.1q-0.2-0.2-0.5-0.2-0.2 0-0.4 0.2l-2.2 2.1q-0.2 0.1-0.2 0.4c0 0.3 0.3 0.5 0.6 0.5q0.2 0 0.4-0.2l0.9-0.9 0.4-0.5-0.1 0.9v6.5c0 0.4 0.3 0.6 0.6 0.6zm-3.7 5.2h7.4c1.4 0 2.2-0.7 2.2-2.1v-6.4c0-1.3-0.8-2.1-2.2-2.1h-1.7v1.3h1.7c0.5 0 0.9 0.3 0.9 0.9v6.2c0 0.6-0.4 0.9-0.9 0.9h-7.3q-0.9 0-0.9-0.9v-6.2q0-0.9 0.9-0.9h1.7v-1.3h-1.8c-1.4 0-2.1 0.7-2.1 2.1v6.4c0 1.4 0.7 2.1 2.1 2.1z"/>
					<path id="Layer" class="s1" d="m593.4 20.2c0.5 0 0.8-0.3 0.8-0.7v-4h4c0.4 0 0.7-0.3 0.7-0.7 0-0.4-0.3-0.8-0.7-0.8h-4v-4c0-0.3-0.3-0.7-0.8-0.7-0.4 0-0.7 0.4-0.7 0.7v4h-4c-0.3 0-0.7 0.4-0.7 0.8 0 0.4 0.4 0.7 0.7 0.7h4v4c0 0.4 0.3 0.7 0.7 0.7z"/>
					<path id="Layer" fill-rule="evenodd" class="s1" d="m615.2 16.6v-6.6c0-1.4 0.7-2.1 2.1-2.1h6.6c1.4 0 2.1 0.7 2.1 2.1v1h1.1c1.4 0 2.1 0.7 2.1 2.1v6.6c0 1.3-0.7 2.1-2.1 2.1h-6.5c-1.4 0-2.2-0.8-2.2-2.1v-1h-1.1q-2.1 0-2.1-2.1zm3.2 0.8v-4.3c0-1.4 0.8-2.1 2.2-2.1h4.1v-0.9c0-0.6-0.3-0.9-0.9-0.9h-6.4c-0.6 0-0.9 0.3-0.9 0.9v6.4c0 0.6 0.3 0.9 0.9 0.9zm8.6 3.1c0.6 0 0.9-0.3 0.9-0.9v-6.4c0-0.6-0.3-0.9-0.9-0.9h-6.4q-0.9 0-0.9 0.9v6.4q0 0.9 0.9 0.9z"/>
				</g>
			</g>
			<g id="Clip-Path" clip-path="url(#cp3)">
				<g id="Layer">
					<path id="Layer" fill-rule="evenodd" class="s1" d="m76.2 19.3v-7.9c0-1.3 0.8-2.1 2.1-2.1h11.1c1.4 0 2.1 0.8 2.1 2.1v7.9c0 1.4-0.7 2.1-2.1 2.1h-11.1c-1.3 0-2.1-0.7-2.1-2.1zm5.2 0.8v-9.5h-3c-0.6 0-0.9 0.3-0.9 1v7.6c0 0.6 0.3 0.9 0.9 0.9zm1.3-9.5v9.5h6.7c0.6 0 0.9-0.3 0.9-0.9v-7.6c0-0.7-0.3-1-0.9-1zm-3.8 2.4c-0.3 0-0.5-0.2-0.5-0.4 0-0.3 0.2-0.5 0.5-0.5h1.3c0.2 0 0.4 0.2 0.4 0.5 0 0.2-0.2 0.4-0.4 0.4zm0 1.7c-0.3 0-0.4-0.2-0.4-0.4 0-0.2 0.1-0.4 0.4-0.4h1.3c0.2 0 0.4 0.2 0.4 0.4 0 0.2-0.2 0.4-0.4 0.4zm0 1.7c-0.2 0-0.4-0.1-0.4-0.4 0-0.2 0.2-0.4 0.4-0.4h1.3c0.3 0 0.5 0.2 0.5 0.4 0 0.3-0.2 0.4-0.5 0.4z"/>
					<path id="Layer" class="s1" d="m116.2 20.3l-4.7-4.6q-0.3-0.3-0.3-0.6 0-0.3 0.3-0.6l4.7-4.6q0.2-0.2 0.5-0.2c0.4 0 0.7 0.3 0.7 0.7q0 0.3-0.2 0.6l-4.2 4.1 4.2 4.2q0.2 0.2 0.2 0.5c0 0.4-0.3 0.7-0.7 0.7q-0.3 0-0.5-0.2z"/>
					<path id="Layer" class="s2" d="m139.6 20.5q0.3 0 0.5-0.2l4.7-4.6q0.2-0.3 0.2-0.6 0-0.3-0.2-0.5l-4.7-4.7q-0.2-0.2-0.5-0.2c-0.5 0-0.8 0.3-0.8 0.7q0 0.3 0.3 0.6l4.2 4.1-4.2 4.2q-0.3 0.2-0.3 0.5c0 0.4 0.3 0.7 0.8 0.7z"/>
				</g>
			</g>
			<g id="Clip-Path" clip-path="url(#cp4)">
				<g id="Layer">
					<path id="Layer" class="s3" d="m20.2 20.2c-2.6 0-4.6-2.1-4.6-4.6 0-2.6 2-4.7 4.6-4.7 2.6 0 4.7 2.1 4.7 4.7 0 2.5-2.1 4.6-4.7 4.6z"/>
					<path id="Layer" class="s4" d="m20.2 19.8c-2.3 0-4.3-1.9-4.3-4.2 0-2.4 2-4.3 4.3-4.3 2.4 0 4.3 1.9 4.3 4.3 0 2.3-1.9 4.2-4.3 4.2z"/>
					<path id="Layer" class="s5" d="m35.8 20.2c-2.6 0-4.7-2.1-4.7-4.6 0-2.6 2.1-4.7 4.7-4.7 2.6 0 4.6 2.1 4.6 4.7 0 2.5-2 4.6-4.6 4.6z"/>
					<path id="Layer" class="s4" d="m35.8 19.8c-2.4 0-4.3-1.9-4.3-4.2 0-2.4 1.9-4.3 4.3-4.3 2.3 0 4.3 1.9 4.3 4.3 0 2.3-2 4.2-4.3 4.2z"/>
					<path id="Layer" class="s6" d="m51.3 20.2c-2.5 0-4.6-2.1-4.6-4.6 0-2.6 2.1-4.7 4.6-4.7 2.6 0 4.7 2.1 4.7 4.7 0 2.5-2.1 4.6-4.7 4.6z"/>
					<path id="Layer" class="s4" d="m51.3 19.8c-2.3 0-4.2-1.9-4.2-4.2 0-2.4 1.9-4.3 4.2-4.3 2.4 0 4.3 1.9 4.3 4.3 0 2.3-1.9 4.2-4.3 4.2z"/>
				</g>
			</g>
			<path id="Layer" fill-rule="evenodd" class="s1" d="m220.4 21.6c-3.7-2-5-2.9-5-5.3v-4.9c0-0.8 0.3-1.1 1-1.3 0.7-0.3 3.1-1.2 3.8-1.4 0.2-0.1 0.5-0.1 0.7-0.1 0.2 0 0.5 0 0.7 0.1 0.7 0.2 3.1 1.1 3.8 1.4 0.6 0.2 0.9 0.5 0.9 1.3v4.9c0 2.4-1.3 3.3-5 5.3-0.1 0.1-0.3 0.2-0.4 0.2-0.1 0-0.3-0.1-0.5-0.2zm0.5-11.8v10.6c0.1 0 0.2 0 0.4-0.1 2.9-1.8 3.8-2.3 3.8-4.2v-4.5c0-0.2 0-0.3-0.2-0.4-1-0.3-2.8-1-3.7-1.3q-0.2-0.1-0.3-0.1z"/>
			<g id="Clip-Path" clip-path="url(#cp5)">
				<g id="Layer">
					<path id="Layer" class="s7" d="m234.1 12.1c0-2.6 0-3.9 0.5-4.9 0.5-0.9 1.2-1.6 2.1-2 1-0.5 2.3-0.5 4.9-0.5h160.8c2.6 0 3.9 0 4.9 0.5 0.9 0.4 1.6 1.1 2.1 2 0.5 1 0.5 2.3 0.5 4.9v6.9c0 2.6 0 3.9-0.5 4.9-0.5 0.9-1.2 1.6-2.1 2-1 0.5-2.3 0.5-4.9 0.5h-160.8c-2.6 0-3.9 0-4.9-0.5-0.9-0.4-1.6-1.1-2.1-2-0.5-1-0.5-2.3-0.5-4.9z"/>
					<g id="Clip-Path" clip-path="url(#cp6)">
						<g id="Layer">
							<path id="Layer" class="s8" d="m400.4 15.3q0.2 0 0.3-0.1l1.9-1.9q0.2-0.1 0.2-0.3 0-0.2-0.2-0.3l-1.9-1.9q-0.1-0.2-0.3-0.2c-0.2 0-0.4 0.2-0.4 0.5q0 0.2 0.1 0.3l1.1 1.1q-0.3-0.1-0.7-0.1c-2.2 0-4 1.8-4 4.1 0 2.2 1.8 4.1 4.1 4.1 2.2 0 4-1.9 4-4.1 0-0.3-0.2-0.5-0.4-0.5-0.3 0-0.5 0.2-0.5 0.5 0 1.7-1.4 3.1-3.1 3.1-1.8 0-3.2-1.4-3.2-3.1 0-1.8 1.4-3.2 3.1-3.2q0.5 0 0.9 0.1l-1.3 1.2q-0.1 0.1-0.1 0.3c0 0.3 0.2 0.4 0.4 0.4z"/>
						</g>
					</g>
					<path id="Layer" fill-rule="evenodd" class="s9" d="m250.9 13.1v1.7h0.6c0.6 0 1.2 0.6 1.2 1.2v4.7c0 0.6-0.6 1.1-1.2 1.1h-7c-0.6 0-1.2-0.5-1.2-1.1v-4.7c0-0.6 0.6-1.2 1.2-1.2h0.6v-1.7c0-1.6 1.3-2.9 2.9-2.9 1.6 0 2.9 1.3 2.9 2.9zm-6.4 2.9v4.7h7v-4.7zm5.2-1.2v-1.7c0-1-0.7-1.8-1.7-1.8-1 0-1.8 0.8-1.8 1.8v1.7z"/>
				</g>
			</g>
		</g>
	</g>
</svg>