<svg xmlns="http://www.w3.org/2000/svg" xmlns:xlink="http://www.w3.org/1999/xlink" version="1.1" width="1000" height="1000" viewBox="0 0 1000 1000" xml:space="preserve">
<desc>Created with Fabric.js 3.5.0</desc>
<defs>
</defs>
<rect x="0" y="0" width="100%" height="100%" fill="rgba(255,255,255,0)"/>
<g transform="matrix(1.6224 0 0 1.6224 -130.3851 499.9983)" id="858954">
<g style="" vector-effect="non-scaling-stroke">
		<g transform="matrix(3.405 0 0 3.405 385.9204 0.0001)">
<path style="stroke: none; stroke-width: 1; stroke-dasharray: none; stroke-linecap: butt; stroke-dashoffset: 0; stroke-linejoin: miter; stroke-miterlimit: 4; is-custom-font: none; font-file-url: none; fill: rgb(0,159,66); fill-rule: nonzero; opacity: 1;" transform=" translate(-48.3525, -78.3165)" d="M 0.0055 78.3996 l 48.6607 -25.9677 L 96.6995 78.211 l -47.9916 25.99 z" stroke-linecap="round"/>
</g>
		<g transform="matrix(3.405 0 0 3.405 385.9204 0.0001)">
<path style="stroke: none; stroke-width: 1; stroke-dasharray: none; stroke-linecap: butt; stroke-dashoffset: 0; stroke-linejoin: miter; stroke-miterlimit: 4; is-custom-font: none; font-file-url: none; fill: rgb(1,200,83); fill-rule: nonzero; opacity: 1;" transform=" translate(-48.3525, -78.3165)" d="M 0.0055 78.3996 l 48.6607 -25.9677 L 96.6995 78.211 l -47.9916 25.99 z" stroke-linecap="round"/>
</g>
		<g transform="matrix(3.405 0 0 3.405 468.7645 0.0001)">
<path style="stroke: none; stroke-width: 1; stroke-dasharray: none; stroke-linecap: butt; stroke-dashoffset: 0; stroke-linejoin: miter; stroke-miterlimit: 4; is-custom-font: none; font-file-url: none; fill: rgb(0,159,66); fill-rule: nonzero; opacity: 1;" transform=" translate(-72.6829, -78.3165)" d="M 48.6662 52.4319 L 96.6995 78.211 l -47.9916 25.99 z" stroke-linecap="round"/>
</g>
		<g transform="matrix(3.405 0 0 3.405 468.7644 43.889)">
<path style="stroke: none; stroke-width: 1; stroke-dasharray: none; stroke-linecap: butt; stroke-dashoffset: 0; stroke-linejoin: miter; stroke-miterlimit: 4; is-custom-font: none; font-file-url: none; fill: rgb(0,120,49); fill-rule: nonzero; opacity: 1;" transform=" translate(-72.6828, -91.2061)" d="M 48.6662 82.3821 l 48.0333 -4.171 l -47.9916 25.99 l -0.0418 -21.819 z" stroke-linecap="round"/>
</g>
		<g transform="matrix(3.405 0 0 3.405 304.1439 44.21)">
<path style="stroke: none; stroke-width: 1; stroke-dasharray: none; stroke-linecap: butt; stroke-dashoffset: 0; stroke-linejoin: miter; stroke-miterlimit: 4; is-custom-font: none; font-file-url: none; fill: rgb(0,159,66); fill-rule: nonzero; opacity: 1;" transform=" translate(-24.3359, -91.3004)" d="M 48.666 82.3821 L 0.0056 78.3996 l 48.6189 25.8016 l 0.0417 -21.8191 z" stroke-linecap="round"/>
</g>
		<g transform="matrix(3.405 0 0 3.405 385.9416 145.2317)">
<path style="stroke: none; stroke-width: 1; stroke-dasharray: none; stroke-linecap: butt; stroke-dashoffset: 0; stroke-linejoin: miter; stroke-miterlimit: 4; is-custom-font: none; font-file-url: none; fill: rgb(0,159,66); fill-rule: nonzero; opacity: 1;" transform=" translate(-48.3588, -120.9691)" d="M 0 85.305 c 17.045 9.041 34.806 18.5175 48.5573 25.8445 l 48.1602 -25.8372 C 79.28 111.2238 64.7553 132.777 48.557 156.6331 C 32.3387 132.827 14.4178 106.55 0 85.305 z" stroke-linecap="round"/>
</g>
		<g transform="matrix(3.405 0 0 3.405 385.9416 145.2317)">
<path style="stroke: none; stroke-width: 1; stroke-dasharray: none; stroke-linecap: butt; stroke-dashoffset: 0; stroke-linejoin: miter; stroke-miterlimit: 4; is-custom-font: none; font-file-url: none; fill: rgb(1,200,83); fill-rule: nonzero; opacity: 1;" transform=" translate(-48.3588, -120.9691)" d="M 0 85.305 c 17.045 9.041 34.806 18.5175 48.5573 25.8445 l 48.1602 -25.8372 C 79.28 111.2238 64.7553 132.777 48.557 156.6331 C 32.3387 132.827 14.4178 106.55 0 85.305 z" stroke-linecap="round"/>
</g>
		<g transform="matrix(3.405 0 0 3.405 468.6093 145.2441)">
<path style="stroke: none; stroke-width: 1; stroke-dasharray: none; stroke-linecap: butt; stroke-dashoffset: 0; stroke-linejoin: miter; stroke-miterlimit: 4; is-custom-font: none; font-file-url: none; fill: rgb(0,159,66); fill-rule: nonzero; opacity: 1;" transform=" translate(-72.6372, -120.9727)" d="M 48.5573 111.1495 l 48.1602 -25.8372 C 79.28 111.2238 48.557 156.6331 48.557 156.6331 z" stroke-linecap="round"/>
</g>
		<g transform="matrix(3.405 0 0 3.405 468.6093 145.2441)">
<path style="stroke: none; stroke-width: 1; stroke-dasharray: none; stroke-linecap: butt; stroke-dashoffset: 0; stroke-linejoin: miter; stroke-miterlimit: 4; is-custom-font: none; font-file-url: none; fill: rgb(0,159,66); fill-rule: nonzero; opacity: 1;" transform=" translate(-72.6372, -120.9727)" d="M 48.5573 111.1495 l 48.1602 -25.8372 C 79.28 111.2238 64.7553 132.777 48.557 156.6331 z" stroke-linecap="round"/>
</g>
		<g transform="matrix(3.405 0 0 3.405 385.9204 -145.9148)">
<path style="stroke: none; stroke-width: 1; stroke-dasharray: none; stroke-linecap: butt; stroke-dashoffset: 0; stroke-linejoin: miter; stroke-miterlimit: 4; is-custom-font: none; font-file-url: none; fill: rgb(1,200,83); fill-rule: nonzero; opacity: 1;" transform=" translate(-48.3525, -35.4631)" d="M 48.5477 45.2103 L 0.0057 70.7716 L 48.337 0 l 48.3623 70.9262 z" stroke-linecap="round"/>
</g>
		<g transform="matrix(3.405 0 0 3.405 468.2037 -145.9148)">
<path style="stroke: none; stroke-width: 1; stroke-dasharray: none; stroke-linecap: butt; stroke-dashoffset: 0; stroke-linejoin: miter; stroke-miterlimit: 4; is-custom-font: none; font-file-url: none; fill: rgb(0,159,66); fill-rule: nonzero; opacity: 1;" transform=" translate(-72.5181, -35.4631)" d="M 48.5478 45.2103 L 48.337 0 l 48.3623 70.9262 z" stroke-linecap="round"/>
</g>
</g>
</g>
</svg>