<svg xmlns="http://www.w3.org/2000/svg" xmlns:xlink="http://www.w3.org/1999/xlink" version="1.1" width="1000" height="1000" viewBox="0 0 1000 1000" xml:space="preserve">
<desc>Created with Fabric.js 3.5.0</desc>
<defs>
</defs>
<rect x="0" y="0" width="100%" height="100%" fill="#ffffff"/>
<g transform="matrix(0.9821 0 0 0.9821 499.9977 248.0313)" id="934496">
<g style="" vector-effect="non-scaling-stroke">
		<g transform="matrix(8.0216 0 0 8.0216 -365.0286 254.725)" id="a">
<path style="stroke: rgb(0,153,0); stroke-width: 5; stroke-dasharray: none; stroke-linecap: round; stroke-dashoffset: 0; stroke-linejoin: round; stroke-miterlimit: 4; is-custom-font: none; font-file-url: none; fill: none; fill-rule: nonzero; opacity: 1;" transform=" translate(-23.5791, -23.1953)" d="M 14.0478 32.7276 V 13.6629 l 19.0625 19.0647 V 13.6629" stroke-linecap="round"/>
</g>
		<g transform="matrix(8.0216 0 0 8.0216 -110.7968 254.5367)">
<path style="stroke: none; stroke-width: 1; stroke-dasharray: none; stroke-linecap: butt; stroke-dashoffset: 0; stroke-linejoin: miter; stroke-miterlimit: 4; is-custom-font: none; font-file-url: none; fill: rgb(0,153,0); fill-rule: nonzero; opacity: 1;" transform=" translate(-55.2726, -23.1718)" d="M 44.6875 11.1875 L 44 12.4688 l -5.3125 9.6562 L 38 23.3438 l 0.6875 1.2187 L 44 33.9063 l 0.7188 1.2812 H 58.625 l 0.6875 -1.4063 l 3.9688 -8 l 1.7812 -3.625 h -4.0313 l -10.1562 0.0313 c -1.3208 -0.0187 -2.5356 1.179 -2.5356 2.5 s 1.2148 2.5187 2.5356 2.5 L 57 27.1562 l -1.5 3.0313 h -7.875 l -3.9063 -6.875 l 3.9376 -7.125 h 8.3772 l 1.9531 4.0078 h 5.0312 l -3.1718 -7.6015 l -0.6875 -1.4063 h -12.971 z m 25.3263 -0.0312 c -1.309 0.0163 -2.4851 1.2222 -2.4688 2.5312 v 6.5145 h 5 v -6.5145 c 0.0166 -1.3298 -1.2014 -2.5478 -2.5312 -2.5313 z" stroke-linecap="round"/>
</g>
		<g transform="matrix(-8.0216 0 0 8.0216 148.197 255.1123)">
<path style="stroke: rgb(0,153,0); stroke-width: 5; stroke-dasharray: none; stroke-linecap: round; stroke-dashoffset: 0; stroke-linejoin: round; stroke-miterlimit: 4; is-custom-font: none; font-file-url: none; fill: none; fill-rule: nonzero; opacity: 1;" transform=" translate(-23.5791, -23.1953)" d="M 14.0478 32.7276 V 13.6629 l 19.0625 19.0647 V 13.6629" stroke-linecap="round"/>
</g>
		<g transform="matrix(8.0216 0 0 8.0216 364.762 254.8694)" id="b">
<path style="stroke: rgb(0,153,0); stroke-width: 5; stroke-dasharray: none; stroke-linecap: round; stroke-dashoffset: 0; stroke-linejoin: round; stroke-miterlimit: 4; is-custom-font: none; font-file-url: none; fill: none; fill-rule: nonzero; opacity: 1;" transform=" translate(-114.4518, -22.8832)" d="M 104.9094 13.3742 l 19.0848 19.0179" stroke-linecap="round"/>
</g>
		<g transform="matrix(-8.0216 0 0 8.0216 364.9392 254.8684)">
<path style="stroke: rgb(0,153,0); stroke-width: 5; stroke-dasharray: none; stroke-linecap: round; stroke-dashoffset: 0; stroke-linejoin: round; stroke-miterlimit: 4; is-custom-font: none; font-file-url: none; fill: none; fill-rule: nonzero; opacity: 1;" transform=" translate(-114.4518, -22.8832)" d="M 104.9094 13.3742 l 19.0848 19.0179" stroke-linecap="round"/>
</g>
		<g transform="matrix(8.0216 0 0 8.0216 7.7004 298.9327)">
<path style="stroke: none; stroke-width: 1; stroke-dasharray: none; stroke-linecap: butt; stroke-dashoffset: 0; stroke-linejoin: miter; stroke-miterlimit: 4; is-custom-font: none; font-file-url: none; fill: rgb(0,153,0); fill-rule: nonzero; opacity: 1;" transform=" translate(-70.045, -28.7064)" d="M 70.0138 35.204 c -1.309 -0.0163 -2.4851 -1.2222 -2.4688 -2.5312 V 22.2085 h 5 v 10.4643 c 0.0166 1.3298 -1.2014 2.5479 -2.5312 2.5313 z" stroke-linecap="round"/>
</g>
</g>
</g>
</svg>