<svg xmlns="http://www.w3.org/2000/svg" xmlns:xlink="http://www.w3.org/1999/xlink" version="1.1" width="1000" height="1000" viewBox="0 0 1000 1000" xml:space="preserve">
<desc>Created with Fabric.js 3.5.0</desc>
<defs>
</defs>
<rect x="0" y="0" width="100%" height="100%" fill="rgba(255,255,255,0)"/>
<g transform="matrix(1.7756 0 0 1.7756 500.0081 500.0062)" id="273731">
<g style="" vector-effect="non-scaling-stroke">
		<g transform="matrix(1 0 0 1 0.015 0)">
<path style="stroke: none; stroke-width: 1; stroke-dasharray: none; stroke-linecap: butt; stroke-dashoffset: 0; stroke-linejoin: miter; stroke-miterlimit: 4; is-custom-font: none; font-file-url: none; fill: rgb(20,112,184); fill-rule: evenodd; opacity: 1;" transform=" translate(-256.015, -194.965)" d="M 256.02 0 c 107.67 0 194.96 87.29 194.96 194.97 c 0 107.67 -87.29 194.96 -194.96 194.96 c -107.68 0 -194.97 -87.29 -194.97 -194.96 C 61.05 87.29 148.34 0 256.02 0 z" stroke-linecap="round"/>
</g>
		<g transform="matrix(1 0 0 1 0.02 0)">
<path style="stroke: none; stroke-width: 1; stroke-dasharray: none; stroke-linecap: butt; stroke-dashoffset: 0; stroke-linejoin: miter; stroke-miterlimit: 4; is-custom-font: none; font-file-url: none; fill: rgb(187,222,251); fill-rule: nonzero; opacity: 1;" transform=" translate(-256.02, -194.965)" d="M 246.24 88.71 V 34.03 c -10.48 9.24 -20.07 18.43 -28.79 27.58 c -8.63 9.06 -16.42 18.09 -23.36 27.1 h 52.15 z m 149.01 212.84 h -50.26 c -17.23 24.83 -38.92 46.81 -61.85 66.4 l 1.98 -0.31 c 43.07 -7 83.74 -31.34 110.13 -66.09 z m -166.29 66.38 c -22.91 -19.57 -44.62 -41.57 -61.82 -66.38 h -50.15 c 26.52 34.92 66.88 59.02 110.11 66.08 l 1.86 0.3 z M 116.79 88.71 h 53.24 c 8.01 -11.46 17.27 -22.96 27.79 -34.49 c 9.77 -10.71 20.64 -21.46 32.62 -32.24 l -2.83 0.42 c -43.25 6.73 -84.3 31.35 -110.82 66.31 z m 164.96 -66.58 c 22.23 19.94 43.18 42.01 60.23 66.58 h 53.16 c -27.54 -36.22 -68.52 -59.84 -113.39 -66.58 z m -15.98 11.9 v 54.68 h 52.15 c -6.94 -9.01 -14.72 -18.04 -23.35 -27.1 c -8.72 -9.15 -18.32 -18.34 -28.8 -27.58 z m 0 267.52 v 55.49 c 19.99 -16.6 38.98 -35 55.02 -55.49 h -55.02 z m -19.53 55.5 v -55.5 h -55.03 c 15.96 20.54 35.01 38.95 55.03 55.5 z" stroke-linecap="round"/>
</g>
		<g transform="matrix(1 0 0 1 0 0.165)">
<path style="stroke: none; stroke-width: 1; stroke-dasharray: none; stroke-linecap: butt; stroke-dashoffset: 0; stroke-linejoin: miter; stroke-miterlimit: 4; is-custom-font: none; font-file-url: none; fill: rgb(20,112,184); fill-rule: nonzero; opacity: 1;" transform=" translate(-256, -195.13)" d="M 40.22 90.41 h 431.56 c 22.09 0 40.22 18.13 40.22 40.22 v 129 c 0 22.03 -18.19 40.22 -40.22 40.22 H 40.22 C 18.09 299.85 0 281.76 0 259.63 v -129 c 0 -22.15 18.07 -40.22 40.22 -40.22 z" stroke-linecap="round"/>
</g>
		<g transform="matrix(1 0 0 1 0 0.165)">
<path style="stroke: none; stroke-width: 1; stroke-dasharray: none; stroke-linecap: butt; stroke-dashoffset: 0; stroke-linejoin: miter; stroke-miterlimit: 4; is-custom-font: none; font-file-url: none; fill: rgb(255,255,255); fill-rule: evenodd; opacity: 1;" transform=" translate(-256, -195.13)" d="M 40.22 108.32 h 431.56 c 12.27 0 22.31 10.08 22.31 22.31 v 129 c 0 12.23 -10.08 22.31 -22.31 22.31 H 40.22 c -12.23 0 -22.31 -10.04 -22.31 -22.31 v -129 c 0 -12.27 10.05 -22.31 22.31 -22.31 z" stroke-linecap="round"/>
</g>
		<g transform="matrix(1 0 0 1 0.005 0.16)">
<path style="stroke: none; stroke-width: 1; stroke-dasharray: none; stroke-linecap: butt; stroke-dashoffset: 0; stroke-linejoin: miter; stroke-miterlimit: 4; is-custom-font: none; font-file-url: none; fill: rgb(31,54,71); fill-rule: nonzero; opacity: 1;" transform=" translate(-256.005, -195.125)" d="M 147.35 148.47 h 31.2 l -14.62 93.31 h -38.97 l -6.87 -34.34 h -1.79 l -6.72 34.34 H 70.62 l -14.63 -93.31 h 31.2 l 7.01 52.11 h 0.9 l 10.75 -52.11 h 22.84 l 10.6 52.11 h 0.9 l 7.16 -52.11 z m 99.51 58.08 H 217 v 12.93 h 36.58 v 22.3 h -66.44 v -93.31 h 65.69 l -3.73 22.31 H 217 v 14.12 h 29.86 v 21.65 z m 20.52 35.23 v -93.31 h 48.38 c 8.95 0 15.35 1.75 19.18 5.23 c 3.83 3.48 5.75 8.56 5.75 15.23 s -1.22 11.81 -3.66 15.45 c -2.44 3.63 -5.7 5.99 -9.78 7.09 v 0.9 c 12.04 2.09 18.07 10.3 18.07 24.63 c 0 7.47 -1.99 13.46 -5.97 17.99 c -3.99 4.53 -10.11 6.79 -18.37 6.79 h -53.6 z m 41.51 -37.17 h -13.23 v 15.23 h 13.08 c 4.18 0 6.27 -2.54 6.27 -7.62 c 0 -5.07 -2.05 -7.61 -6.12 -7.61 z m -2.24 -35.68 h -10.99 v 13.88 h 10.84 c 3.78 0 5.67 -2.31 5.67 -6.94 c 0 -4.63 -1.84 -6.94 -5.52 -6.94 z m 117.27 12.39 v -11.29 c -2.99 -0.5 -7.82 -0.74 -14.48 -0.74 c -6.67 0 -14.98 1.04 -24.94 3.13 l -3.88 -20.51 c 12.14 -3.79 23.89 -5.68 35.24 -5.68 c 9.75 0 16.82 0.6 21.2 1.79 c 4.38 1.2 7.61 2.64 9.7 4.33 c 4.58 3.89 6.87 9.76 6.87 17.62 c 0 9.95 -4.13 17.12 -12.39 21.5 v 0.75 c 9.85 4.08 14.78 11.49 14.78 22.24 c 0 5.28 -0.82 9.78 -2.46 13.51 c -1.65 3.73 -3.71 6.62 -6.2 8.66 s -5.77 3.66 -9.86 4.85 c -6.07 1.7 -14.6 2.54 -25.6 2.54 c -11 0 -22.02 -1.29 -33.07 -3.88 l 4.18 -23.05 c 9.46 2.29 17.47 3.44 24.04 3.44 s 12.19 -0.3 16.87 -0.9 v -11.14 l -25.68 -2.54 V 184.3 l 25.68 -2.98 z" stroke-linecap="round"/>
</g>
</g>
</g>
</svg>