<svg xmlns="http://www.w3.org/2000/svg" xmlns:xlink="http://www.w3.org/1999/xlink" version="1.1" width="1000" height="1000" viewBox="0 0 1000 1000" xml:space="preserve">
<desc>Created with Fabric.js 3.5.0</desc>
<defs>
</defs>
<rect x="0" y="0" width="100%" height="100%" fill="rgba(255,255,255,0)"/>
<g transform="matrix(1.0014 0 0 1.0014 481.1679 500.0136)" id="569874">
<g style="" vector-effect="non-scaling-stroke">
		<g transform="matrix(2.9663 0 0 2.9663 20.2811 -127.2506)" id="path1857">
<path style="stroke: none; stroke-width: 1; stroke-dasharray: none; stroke-linecap: butt; stroke-dashoffset: 0; stroke-linejoin: miter; stroke-miterlimit: 4; is-custom-font: none; font-file-url: none; fill: rgb(37,47,62); fill-rule: nonzero; opacity: 1;" transform=" translate(-152, -48.1)" d="M 86.4 66.4 c 0 3.7 0.4 6.7 1.1 8.9 c 0.8 2.2 1.8 4.6 3.2 7.2 c 0.5 0.8 0.7 1.6 0.7 2.3 c 0 1 -0.6 2 -1.9 3 L 83.2 92 c -0.9 0.6 -1.8 0.9 -2.6 0.9 c -1 0 -2 -0.5 -3 -1.4 c -1.4 -1.5 -2.6 -3.1 -3.6 -4.7 c -1 -1.7 -2 -3.6 -3.1 -5.9 c -7.8 9.2 -17.6 13.8 -29.4 13.8 c -8.4 0 -15.1 -2.4 -20 -7.2 c -4.9 -4.8 -7.4 -11.2 -7.4 -19.2 c 0 -8.5 3 -15.4 9.1 -20.6 c 6.1 -5.2 14.2 -7.8 24.5 -7.8 c 3.4 0 6.9 0.3 10.6 0.8 c 3.7 0.5 7.5 1.3 11.5 2.2 v -7.3 c 0 -7.6 -1.6 -12.9 -4.7 -16 c -3.2 -3.1 -8.6 -4.6 -16.3 -4.6 c -3.5 0 -7.1 0.4 -10.8 1.3 c -3.7 0.9 -7.3 2 -10.8 3.4 c -1.6 0.7 -2.8 1.1 -3.5 1.3 c -0.7 0.2 -1.2 0.3 -1.6 0.3 c -1.4 0 -2.1 -1 -2.1 -3.1 v -4.9 c 0 -1.6 0.2 -2.8 0.7 -3.5 c 0.5 -0.7 1.4 -1.4 2.8 -2.1 c 3.5 -1.8 7.7 -3.3 12.6 -4.5 C 41 1.9 46.2 1.3 51.7 1.3 c 11.9 0 20.6 2.7 26.2 8.1 c 5.5 5.4 8.3 13.6 8.3 24.6 v 32.4 z M 45.8 81.6 c 3.3 0 6.7 -0.6 10.3 -1.8 c 3.6 -1.2 6.8 -3.4 9.5 -6.4 c 1.6 -1.9 2.8 -4 3.4 -6.4 c 0.6 -2.4 1 -5.3 1 -8.7 v -4.2 c -2.9 -0.7 -6 -1.3 -9.2 -1.7 c -3.2 -0.4 -6.3 -0.6 -9.4 -0.6 c -6.7 0 -11.6 1.3 -14.9 4 c -3.3 2.7 -4.9 6.5 -4.9 11.5 c 0 4.7 1.2 8.2 3.7 10.6 c 2.4 2.5 5.9 3.7 10.5 3.7 z m 80.3 10.8 c -1.8 0 -3 -0.3 -3.8 -1 c -0.8 -0.6 -1.5 -2 -2.1 -3.9 L 96.7 10.2 c -0.6 -2 -0.9 -3.3 -0.9 -4 c 0 -1.6 0.8 -2.5 2.4 -2.5 h 9.8 c 1.9 0 3.2 0.3 3.9 1 c 0.8 0.6 1.4 2 2 3.9 l 16.8 66.2 l 15.6 -66.2 c 0.5 -2 1.1 -3.3 1.9 -3.9 c 0.8 -0.6 2.2 -1 4 -1 h 8 c 1.9 0 3.2 0.3 4 1 c 0.8 0.6 1.5 2 1.9 3.9 l 15.8 67 l 17.3 -67 c 0.6 -2 1.3 -3.3 2 -3.9 c 0.8 -0.6 2.1 -1 3.9 -1 h 9.3 c 1.6 0 2.5 0.8 2.5 2.5 c 0 0.5 -0.1 1 -0.2 1.6 c -0.1 0.6 -0.3 1.4 -0.7 2.5 l -24.1 77.3 c -0.6 2 -1.3 3.3 -2.1 3.9 c -0.8 0.6 -2.1 1 -3.8 1 h -8.6 c -1.9 0 -3.2 -0.3 -4 -1 c -0.8 -0.7 -1.5 -2 -1.9 -4 L 156 23 l -15.4 64.4 c -0.5 2 -1.1 3.3 -1.9 4 c -0.8 0.7 -2.2 1 -4 1 z m 128.5 2.7 c -5.2 0 -10.4 -0.6 -15.4 -1.8 c -5 -1.2 -8.9 -2.5 -11.5 -4 c -1.6 -0.9 -2.7 -1.9 -3.1 -2.8 c -0.4 -0.9 -0.6 -1.9 -0.6 -2.8 v -5.1 c 0 -2.1 0.8 -3.1 2.3 -3.1 c 0.6 0 1.2 0.1 1.8 0.3 c 0.6 0.2 1.5 0.6 2.5 1 c 3.4 1.5 7.1 2.7 11 3.5 c 4 0.8 7.9 1.2 11.9 1.2 c 6.3 0 11.2 -1.1 14.6 -3.3 c 3.4 -2.2 5.2 -5.4 5.2 -9.5 c 0 -2.8 -0.9 -5.1 -2.7 -7 c -1.8 -1.9 -5.2 -3.6 -10.1 -5.2 L 246 52 c -7.3 -2.3 -12.7 -5.7 -16 -10.2 c -3.3 -4.4 -5 -9.3 -5 -14.5 c 0 -4.2 0.9 -7.9 2.7 -11.1 c 1.8 -3.2 4.2 -6 7.2 -8.2 c 3 -2.3 6.4 -4 10.4 -5.2 c 4 -1.2 8.2 -1.7 12.6 -1.7 c 2.2 0 4.5 0.1 6.7 0.4 c 2.3 0.3 4.4 0.7 6.5 1.1 c 2 0.5 3.9 1 5.7 1.6 c 1.8 0.6 3.2 1.2 4.2 1.8 c 1.4 0.8 2.4 1.6 3 2.5 c 0.6 0.8 0.9 1.9 0.9 3.3 v 4.7 c 0 2.1 -0.8 3.2 -2.3 3.2 c -0.8 0 -2.1 -0.4 -3.8 -1.2 c -5.7 -2.6 -12.1 -3.9 -19.2 -3.9 c -5.7 0 -10.2 0.9 -13.3 2.8 c -3.1 1.9 -4.7 4.8 -4.7 8.9 c 0 2.8 1 5.2 3 7.1 c 2 1.9 5.7 3.8 11 5.5 l 14.2 4.5 c 7.2 2.3 12.4 5.5 15.5 9.6 c 3.1 4.1 4.6 8.8 4.6 14 c 0 4.3 -0.9 8.2 -2.6 11.6 c -1.8 3.4 -4.2 6.4 -7.3 8.8 c -3.1 2.5 -6.8 4.3 -11.1 5.6 c -4.5 1.4 -9.2 2.1 -14.3 2.1 z" stroke-linecap="round"/>
</g>
		<g transform="matrix(2.9663 0 0 2.9663 -18.9398 175.0742)" id="path1859">
<path style="stroke: none; stroke-width: 1; stroke-dasharray: none; stroke-linecap: butt; stroke-dashoffset: 0; stroke-linejoin: miter; stroke-miterlimit: 4; is-custom-font: none; font-file-url: none; fill: rgb(255,153,0); fill-rule: evenodd; opacity: 1;" transform=" translate(-138.7777, -150.0215)" d="M 273.5 143.7 c -32.9 24.3 -80.7 37.2 -121.8 37.2 c -57.6 0 -109.5 -21.3 -148.7 -56.7 c -3.1 -2.8 -0.3 -6.6 3.4 -4.4 c 42.4 24.6 94.7 39.5 148.8 39.5 c 36.5 0 76.6 -7.6 113.5 -23.2 c 5.5 -2.5 10.2 3.6 4.8 7.6 z" stroke-linecap="round"/>
</g>
		<g transform="matrix(2.9663 0 0 2.9663 382.6431 148.158)" id="path1861">
<path style="stroke: none; stroke-width: 1; stroke-dasharray: none; stroke-linecap: butt; stroke-dashoffset: 0; stroke-linejoin: miter; stroke-miterlimit: 4; is-custom-font: none; font-file-url: none; fill: rgb(255,153,0); fill-rule: evenodd; opacity: 1;" transform=" translate(-274.1628, -140.9474)" d="M 287.2 128.1 c -4.2 -5.4 -27.8 -2.6 -38.5 -1.3 c -3.2 0.4 -3.7 -2.4 -0.8 -4.5 c 18.8 -13.2 49.7 -9.4 53.3 -5 c 3.6 4.5 -1 35.4 -18.6 50.2 c -2.7 2.3 -5.3 1.1 -4.1 -1.9 c 4 -9.9 12.9 -32.2 8.7 -37.5 z" stroke-linecap="round"/>
</g>
</g>
</g>
</svg>