<svg xmlns="http://www.w3.org/2000/svg" xmlns:xlink="http://www.w3.org/1999/xlink" version="1.1" width="1000" height="1000" viewBox="0 0 1000 1000" xml:space="preserve">
<desc>Created with Fabric.js 3.5.0</desc>
<defs>
</defs>
<rect x="0" y="0" width="100%" height="100%" fill="rgba(255,255,255,0)"/>
<g transform="matrix(1.6995 0 0 1.6995 70.5197 500.0186)" id="486683">
<g style="" vector-effect="non-scaling-stroke">
		<g transform="matrix(0.8715 0 0 0.8715 253.3457 0.0124)">
<path style="stroke: none; stroke-width: 1; stroke-dasharray: none; stroke-linecap: butt; stroke-dashoffset: 0; stroke-linejoin: miter; stroke-miterlimit: 4; is-custom-font: none; font-file-url: none; fill: rgb(86,61,124); fill-rule: nonzero; opacity: 1;" transform=" translate(-306, -306)" d="M 612 510 c 0 56.1 -45.9 102 -102 102 H 102 C 45.9 612 0 566.1 0 510 V 102 C 0 45.9 45.9 0 102 0 h 408 c 56.1 0 102 45.9 102 102 z" stroke-linecap="round"/>
</g>
		<g transform="matrix(0.8715 0 0 0.8715 260.3546 4.8002)">
<path style="stroke: none; stroke-width: 1; stroke-dasharray: none; stroke-linecap: butt; stroke-dashoffset: 0; stroke-linejoin: miter; stroke-miterlimit: 4; is-custom-font: none; font-file-url: none; fill: rgb(255,255,255); fill-rule: nonzero; opacity: 1;" transform=" translate(-314.05, -311.5)" d="M 166.3 133 h 173.5 c 32 0 57.7 7.3 77 22 c 19.3 14.7 29 36.8 29 66.5 c 0 18 -4.4 33.4 -13.2 46.2 c -8.8 12.8 -21.4 22.8 -37.8 29.8 v 1 c 22 4.7 38.7 15.1 50 31.2 c 11.3 16.2 17 36.4 17 60.8 c 0 14 -2.5 27.1 -7.5 39.2 c -5 12.2 -12.8 22.7 -23.5 31.5 s -24.3 15.8 -41 21 c -16.7 5.2 -36.5 7.8 -59.5 7.8 h -164 z m 62.5 149.5 h 102 c 15 0 27.5 -4.2 37.5 -12.8 c 10 -8.6 15 -20.8 15 -36.8 c 0 -18 -4.5 -30.7 -13.5 -38 c -9 -7.3 -22 -11 -39 -11 h -102 z m 0 156.5 h 110.5 c 19 0 33.8 -4.9 44.2 -14.8 c 10.5 -9.8 15.8 -23.8 15.8 -41.8 c 0 -17.7 -5.2 -31.2 -15.8 -40.8 c -10.6 -9.6 -25.2 -14.2 -44.2 -14.2 H 228.8 z" stroke-linecap="round"/>
</g>
</g>
</g>
</svg>