<svg xmlns="http://www.w3.org/2000/svg" xmlns:xlink="http://www.w3.org/1999/xlink" version="1.1" width="1000" height="1000" viewBox="0 0 1000 1000" xml:space="preserve">
<desc>Created with Fabric.js 3.5.0</desc>
<defs>
</defs>
<rect x="0" y="0" width="100%" height="100%" fill="rgba(255,255,255,0)"/>
<g transform="matrix(1.7918 0 0 1.6272 -241.3134 499.994)" id="942927">
<g style="" vector-effect="non-scaling-stroke">
		<g transform="matrix(0.986 0 0 0.986 446.7924 67.8536)">
<path style="stroke: none; stroke-width: 1; stroke-dasharray: none; stroke-linecap: butt; stroke-dashoffset: 0; stroke-linejoin: miter; stroke-miterlimit: 4; is-custom-font: none; font-file-url: none; fill: rgb(83,130,161); fill-rule: nonzero; opacity: 1;" transform=" translate(-179.0693, -339.27)" d="M 278.577 426.546 h -2.038 v -1.14 h 5.486 v 1.14 h -2.024 v 5.688 h -1.424 z m 10.942 0.297 h -0.032 l -2.019 5.392 h -0.924 l -2.006 -5.392 h -0.025 v 5.392 h -1.342 v -6.828 h 1.975 l 1.86 4.835 l 1.854 -4.835 h 1.968 v 6.828 h -1.31 v -5.392 z M 96.154 286.925 s -14.178 8.245 10.09 11.035 c 29.4 3.354 44.426 2.873 76.825 -3.259 c 0 0 8.518 5.341 20.414 9.967 c -72.63 31.128 -164.376 -1.803 -107.329 -17.743 m -8.875 -40.62 s -15.902 11.771 8.384 14.283 c 31.406 3.24 56.208 3.505 99.125 -4.759 c 0 0 5.936 6.018 15.27 9.309 c -87.814 25.678 -185.623 2.025 -122.779 -18.833" stroke-linecap="round"/>
</g>
		<g transform="matrix(0.986 0 0 0.986 454.6765 -122.5515)">
<path style="stroke: none; stroke-width: 1; stroke-dasharray: none; stroke-linecap: butt; stroke-dashoffset: 0; stroke-linejoin: miter; stroke-miterlimit: 4; is-custom-font: none; font-file-url: none; fill: rgb(248,152,29); fill-rule: nonzero; opacity: 1;" transform=" translate(-187.0653, -146.1615)" d="M 162.098 177.4 c 17.896 20.604 -4.702 39.145 -4.702 39.145 s 45.441 -23.458 24.572 -52.833 c -19.491 -27.394 -34.438 -41.005 46.479 -87.934 c 0 0 -127.013 31.722 -66.349 101.622" stroke-linecap="round"/>
</g>
		<g transform="matrix(0.986 0 0 0.986 412.9673 6.417)">
<path style="stroke: none; stroke-width: 1; stroke-dasharray: none; stroke-linecap: butt; stroke-dashoffset: 0; stroke-linejoin: miter; stroke-miterlimit: 4; is-custom-font: none; font-file-url: none; fill: rgb(83,130,161); fill-rule: nonzero; opacity: 1;" transform=" translate(-144.7638, -276.961)" d="M 258.157 316.97 s 10.492 8.645 -11.555 15.333 c -41.923 12.7 -174.488 16.535 -211.314 0.506 c -13.238 -5.759 11.587 -13.751 19.396 -15.428 c 8.144 -1.766 12.798 -1.437 12.798 -1.437 c -14.722 -10.371 -95.157 20.364 -40.857 29.166 c 148.084 24.015 269.943 -10.814 231.532 -28.14 M 102.972 204.218 s -67.431 16.016 -23.879 21.832 c 18.389 2.462 55.047 1.905 89.193 -0.956 c 27.906 -2.354 55.927 -7.359 55.927 -7.359 s -9.84 4.214 -16.959 9.075 c -68.475 18.009 -200.756 9.631 -162.674 -8.79 c 32.206 -15.568 58.392 -13.802 58.392 -13.802 m 120.963 67.614 c 69.608 -36.171 37.424 -70.931 14.96 -66.248 c -5.506 1.146 -7.961 2.139 -7.961 2.139 s 2.044 -3.202 5.948 -4.588 c 44.441 -15.624 78.619 46.081 -14.346 70.52 c 0 0.001 1.077 -0.962 1.399 -1.823" stroke-linecap="round"/>
</g>
		<g transform="matrix(0.986 0 0 0.986 412.2455 -166.3215)">
<path style="stroke: none; stroke-width: 1; stroke-dasharray: none; stroke-linecap: butt; stroke-dashoffset: 0; stroke-linejoin: miter; stroke-miterlimit: 4; is-custom-font: none; font-file-url: none; fill: rgb(248,152,29); fill-rule: nonzero; opacity: 1;" transform=" translate(-144.0318, -101.77)" d="M 181.968 0 s 38.55 38.563 -36.563 97.862 c -60.233 47.568 -13.735 74.69 -0.025 105.678 c -35.159 -31.722 -60.961 -59.647 -43.651 -85.637 C 127.136 79.752 197.522 61.255 181.968 0" stroke-linecap="round"/>
</g>
		<g transform="matrix(0.986 0 0 0.986 409.088 165.5785)">
<path style="stroke: none; stroke-width: 1; stroke-dasharray: none; stroke-linecap: butt; stroke-dashoffset: 0; stroke-linejoin: miter; stroke-miterlimit: 4; is-custom-font: none; font-file-url: none; fill: rgb(83,130,161); fill-rule: nonzero; opacity: 1;" transform=" translate(-140.8295, -438.3825)" d="M 109.812 369.847 c 66.815 4.277 169.417 -2.373 171.847 -33.988 c 0 0 -4.671 11.985 -55.219 21.503 c -57.028 10.732 -127.364 9.479 -169.081 2.601 c 0.001 -0.001 8.54 7.068 52.453 9.884 m -10.95 120.802 c -6.303 5.467 -12.96 8.536 -18.934 8.536 c -8.527 0 -13.134 -5.113 -13.134 -13.314 c 0 -8.871 4.936 -15.357 24.739 -15.357 h 7.328 v 20.135 m 17.393 19.623 V 449.53 c 0 -15.517 -8.85 -25.756 -30.188 -25.756 c -12.457 0 -23.369 3.076 -32.238 6.999 l 2.56 10.752 c 6.983 -2.563 16.022 -4.949 24.894 -4.949 c 12.292 0 17.58 4.949 17.58 15.181 v 7.677 h -6.135 c -29.865 0 -43.337 11.593 -43.337 28.994 c 0 15.017 8.878 23.553 25.594 23.553 c 10.745 0 18.766 -4.436 26.264 -10.928 l 1.361 9.22 h 13.645 z m 58.044 0 h -21.692 l -26.106 -84.96 h 18.943 l 16.199 52.2 l 3.601 15.699 c 8.195 -22.698 13.991 -45.726 16.89 -67.899 h 18.427 c -4.937 27.977 -13.821 58.685 -26.262 84.96 m 83.213 -19.623 c -6.315 5.467 -12.984 8.536 -18.958 8.536 c -8.512 0 -13.131 -5.113 -13.131 -13.314 c 0 -8.871 4.948 -15.357 24.749 -15.357 h 7.34 v 20.135 m 17.39 19.623 V 449.53 c 0 -15.517 -8.872 -25.756 -30.185 -25.756 c -12.466 0 -23.382 3.076 -32.247 6.999 l 2.556 10.752 c 6.986 -2.563 16.042 -4.949 24.907 -4.949 c 12.283 0 17.579 4.949 17.579 15.181 v 7.677 h -6.145 c -29.874 0 -43.34 11.593 -43.34 28.994 c 0 15.017 8.871 23.553 25.584 23.553 c 10.751 0 18.769 -4.436 26.28 -10.928 l 1.366 9.22 h 13.645 z M 30.32 524.7 c -4.958 7.239 -12.966 12.966 -21.733 16.206 L 0 530.801 c 6.673 -3.424 12.396 -8.954 15.055 -14.105 c 2.3 -4.581 3.252 -10.485 3.252 -24.604 v -96.995 h 18.478 v 95.666 c -0.001 18.876 -1.51 26.501 -6.465 33.937" stroke-linecap="round"/>
</g>
</g>
</g>
</svg>