<svg xmlns="http://www.w3.org/2000/svg" xmlns:xlink="http://www.w3.org/1999/xlink" version="1.1" width="1000" height="1000" viewBox="0 0 1000 1000" xml:space="preserve">
<desc>Created with Fabric.js 3.5.0</desc>
<defs>
</defs>
<rect x="0" y="0" width="100%" height="100%" fill="rgba(255,255,255,0)"/>
<g transform="matrix(2.0256 0 0 2.0256 500.0065 500.0065)" id="724361">
<g style="" vector-effect="non-scaling-stroke">
		<g transform="matrix(12.5 0 0 12.5 -51.689 -51.3546)">
<linearGradient id="SVGID_3" gradientUnits="userSpaceOnUse" gradientTransform="matrix(1 0 0 1 0 0)" x1="19.075" y1="18.782" x2="34.898" y2="34.658">
<stop offset="0%" style="stop-color:rgb(56,126,184);stop-opacity: 1"/>
<stop offset="100%" style="stop-color:rgb(54,105,148);stop-opacity: 1"/>
</linearGradient>
<path style="stroke: none; stroke-width: 1; stroke-dasharray: none; stroke-linecap: butt; stroke-dashoffset: 0; stroke-linejoin: miter; stroke-miterlimit: 4; is-custom-font: none; font-file-url: none; fill: url(#SVGID_3); fill-rule: nonzero; opacity: 1;" transform=" translate(-27.8649, -27.8916)" d="M 31.885 16 c -8.124 0 -7.617 3.523 -7.617 3.523 l 0.01 3.65 h 7.752 v 1.095 H 21.197 S 16 23.678 16 31.876 c 0 8.196 4.537 7.906 4.537 7.906 h 2.708 v -3.804 s -0.146 -4.537 4.465 -4.537 h 7.688 s 4.32 0.07 4.32 -4.175 v -7.019 S 40.374 16 31.885 16 z m -4.275 2.454 c 0.771 0 1.395 0.624 1.395 1.395 s -0.624 1.395 -1.395 1.395 a 1.393 1.393 0 0 1 -1.395 -1.395 c 0 -0.771 0.624 -1.395 1.395 -1.395 z" stroke-linecap="round"/>
</g>
		<g transform="matrix(12.5 0 0 12.5 51.6891 49.2732)">
<linearGradient id="SVGID_4" gradientUnits="userSpaceOnUse" gradientTransform="matrix(1 0 0 1 0 0)" x1="28.809" y1="28.882" x2="45.803" y2="45.163">
<stop offset="0%" style="stop-color:rgb(255,224,82);stop-opacity: 1"/>
<stop offset="100%" style="stop-color:rgb(255,195,49);stop-opacity: 1"/>
</linearGradient>
<path style="stroke: none; stroke-width: 1; stroke-dasharray: none; stroke-linecap: butt; stroke-dashoffset: 0; stroke-linejoin: miter; stroke-miterlimit: 4; is-custom-font: none; font-file-url: none; fill: url(#SVGID_4); fill-rule: nonzero; opacity: 1;" transform=" translate(-36.1351, -35.9419)" d="M 32.115 47.833 c 8.124 0 7.617 -3.523 7.617 -3.523 l -0.01 -3.65 H 31.97 v -1.095 h 10.832 S 48 40.155 48 31.958 c 0 -8.197 -4.537 -7.906 -4.537 -7.906 h -2.708 v 3.803 s 0.146 4.537 -4.465 4.537 h -7.688 s -4.32 -0.07 -4.32 4.175 v 7.019 s -0.656 4.247 7.833 4.247 z m 4.275 -2.454 a 1.393 1.393 0 0 1 -1.395 -1.395 c 0 -0.77 0.624 -1.394 1.395 -1.394 s 1.395 0.623 1.395 1.394 c 0 0.772 -0.624 1.395 -1.395 1.395 z" stroke-linecap="round"/>
</g>
</g>
</g>
</svg>