<svg xmlns="http://www.w3.org/2000/svg" xmlns:xlink="http://www.w3.org/1999/xlink" version="1.1" width="1000" height="1000" viewBox="0 0 1000 1000" xml:space="preserve">
<desc>Created with Fabric.js 3.5.0</desc>
<defs>
</defs>
<rect x="0" y="0" width="100%" height="100%" fill="rgba(255,255,255,0)"/>
<g transform="matrix(0.9877 0 0 0.998 499.997 272.9705)" id="113385">
<g style="" vector-effect="non-scaling-stroke">
		<g transform="matrix(2.3316 0 0 2.3316 148.6401 235.7397)">
<path style="stroke: none; stroke-width: 1; stroke-dasharray: none; stroke-linecap: butt; stroke-dashoffset: 0; stroke-linejoin: miter; stroke-miterlimit: 4; is-custom-font: none; font-file-url: none; fill: rgb(204,0,0); fill-rule: evenodd; opacity: 1;" transform=" translate(-261.7, -103.55)" d="M 344.6 121.1 v 18.1 h 32.7 c 6.7 0 18.2 -4.9 18.6 -18.6 v -7 c 0 -11.7 -9.6 -18.6 -18.6 -18.6 H 361 v -8.4 h 32.3 V 68.4 h -31 c -8 0 -18.7 6.6 -18.7 18.9 v 6.3 c 0 12.3 10.6 18.6 18.7 18.6 c 22.5 0.1 -5.4 0 15.4 0 v 8.8 m -208.3 -4.3 s 17.5 -1.5 17.5 -24.1 s -21.2 -24.7 -21.2 -24.7 h -38.2 v 71.3 h 19.2 V 122 l 16.6 17.2 h 28.4 z m -7.4 -14.6 h -15.3 V 85.8 h 15.4 s 4.3 1.6 4.3 8.1 s -4.4 8.2 -4.4 8.2 z m 72.3 -33.7 h -19.5 c -13.9 0 -18.6 12.6 -18.6 18.6 v 52.2 h 19.5 v -12.5 H 234 v 12.5 h 18.9 V 87 c 0 -15.2 -13.8 -18.6 -18.6 -18.6 z m -0.3 38.1 h -18.4 V 89.2 s 0 -3.9 6.1 -3.9 h 6.7 c 5.4 0 5.5 3.9 5.5 3.9 v 17.3 z m 27.8 -38.1 h 20.3 v 70.8 h -20.3 z m 28.6 0 v 70.8 h 47.5 v -18.3 h -27.3 V 68.4 z" stroke-linecap="round"/>
</g>
		<g transform="matrix(2.3316 0 0 2.3316 -188.9745 168.296)">
<path style="stroke: none; stroke-width: 1; stroke-dasharray: none; stroke-linecap: butt; stroke-dashoffset: 0; stroke-linejoin: miter; stroke-miterlimit: 4; is-custom-font: none; font-file-url: none; fill: rgb(204,0,0); fill-rule: evenodd; opacity: 1;" transform=" translate(-116.9, -74.6239)" d="M 7 139.2 h 79 s -15.1 -68.9 34.9 -96.8 c 10.9 -5.3 45.6 -25.1 102.4 16.9 c 1.8 -1.5 3.5 -2.7 3.5 -2.7 s -52 -51.9 -109.9 -46.1 C 87.8 13.1 52 39.6 31 74.6 c -21 35 -24 64.6 -24 64.6 z" stroke-linecap="round"/>
</g>
		<g transform="matrix(2.3316 0 0 2.3316 -188.9745 168.296)">
<path style="stroke: none; stroke-width: 1; stroke-dasharray: none; stroke-linecap: butt; stroke-dashoffset: 0; stroke-linejoin: miter; stroke-miterlimit: 4; is-custom-font: none; font-file-url: none; fill: rgb(204,0,0); fill-rule: evenodd; opacity: 1;" transform=" translate(-116.9, -74.6239)" d="M 7 139.2 h 79 s -15.1 -68.9 34.9 -96.8 c 10.9 -5.3 45.6 -25.1 102.4 16.9 c 1.8 -1.5 3.5 -2.7 3.5 -2.7 s -52 -51.9 -109.9 -46.1 C 87.8 13.1 52 39.6 31 74.6 c -21 35 -24 64.6 -24 64.6 z" stroke-linecap="round"/>
</g>
		<g transform="matrix(2.3316 0 0 2.3316 -188.9745 163.4606)">
<path style="stroke: none; stroke-width: 1; stroke-dasharray: none; stroke-linecap: butt; stroke-dashoffset: 0; stroke-linejoin: miter; stroke-miterlimit: 4; is-custom-font: none; font-file-url: none; fill: rgb(204,0,0); fill-rule: evenodd; opacity: 1;" transform=" translate(-116.9, -72.55)" d="M 7 139.2 h 79 s -15.1 -68.9 34.9 -96.8 c 10.9 -5.3 45.6 -25.1 102.4 16.9 c 1.8 -1.5 3.5 -2.7 3.5 -2.7 s -52 -51.9 -109.9 -46.1 c -29.2 2.6 -65 29.1 -86 64.1 c -21 35 -23.9 64.6 -23.9 64.6 z M 171.6 16.1 l 0.4 -6.7 c -0.9 -0.5 -3.4 -1.7 -9.7 -3.5 l -0.4 6.6 c 3.3 1.1 6.5 2.3 9.7 3.6 z" stroke-linecap="round"/>
</g>
		<g transform="matrix(2.3316 0 0 2.3316 -261.0209 152.9686)">
<path style="stroke: none; stroke-width: 1; stroke-dasharray: none; stroke-linecap: butt; stroke-dashoffset: 0; stroke-linejoin: miter; stroke-miterlimit: 4; is-custom-font: none; font-file-url: none; fill: rgb(204,0,0); fill-rule: evenodd; opacity: 1;" transform=" translate(-86, -68.05)" d="M 162.1 37.3 l -0.4 6.3 c 3.3 0.1 6.6 0.5 9.9 1.2 l 0.4 -6.2 c -3.4 -0.7 -6.7 -1.1 -9.9 -1.3 z m -37 -31.2 h 1 l -2 -6.1 c -3.1 0 -6.3 0.2 -9.6 0.6 l 1.9 5.9 c 2.9 -0.3 5.8 -0.4 8.7 -0.4 z m 4.8 36.8 l 2.3 6.9 c 2.9 -1.4 5.8 -2.6 8.7 -3.5 l -2.2 -6.6 c -3.4 1 -6.3 2.1 -8.8 3.2 z M 84.5 16.6 L 80 9.7 c -2.5 1.3 -5.1 2.7 -7.8 4.3 l 4.6 7 c 2.6 -1.6 5.1 -3.1 7.7 -4.4 z m 20.5 45 l 4.8 7.2 c 1.7 -2.5 3.7 -4.8 5.9 -7.1 l -4.5 -6.8 c -2.3 2.1 -4.4 4.4 -6.2 6.7 z M 90.5 93.8 l 8.1 6.4 c 0.4 -3.9 1.1 -7.8 2.1 -11.7 l -7.2 -5.7 c -1.3 3.7 -2.2 7.4 -3 11 z M 46.7 46.3 l -7.1 -6.2 c -2.6 2.5 -5.1 5 -7.4 7.5 l 7.7 6.6 c 2.1 -2.7 4.4 -5.4 6.8 -7.9 z M 16.5 91 L 5 86.8 c -1.9 4.3 -4 9.3 -5 12 l 11.5 4.2 c 1.3 -3.4 3.4 -8.3 5 -12 z M 89 119.2 c 0.2 5.3 0.7 9.6 1.2 12.6 l 12 4.3 c -0.9 -3.9 -1.8 -8.3 -2.4 -13 z" stroke-linecap="round"/>
</g>
</g>
</g>
</svg>