<svg xmlns="http://www.w3.org/2000/svg" xmlns:xlink="http://www.w3.org/1999/xlink" version="1.1" width="1000" height="1000" viewBox="0 0 1000 1000" xml:space="preserve">
<desc>Created with Fabric.js 3.5.0</desc>
<defs>
</defs>
<rect x="0" y="0" width="100%" height="100%" fill="rgba(255,255,255,0)"/>
<g transform="matrix(1.6581 0 0 1.6028 -109.1925 499.9926)" id="476699">
<g style="" vector-effect="non-scaling-stroke">
		<g transform="matrix(0.656 0 0 0.656 333.3026 -190.4716)">
<path style="stroke: none; stroke-width: 1; stroke-dasharray: none; stroke-linecap: butt; stroke-dashoffset: 0; stroke-linejoin: miter; stroke-miterlimit: 4; is-custom-font: none; font-file-url: none; fill: rgb(0,0,0); fill-rule: nonzero; opacity: 0.45;" transform=" translate(-195.965, -116.151)" d="M 391.93 0 L 261.226 232.302 H 0 L 130.614 0 H 391.93" stroke-linecap="round"/>
</g>
		<g transform="matrix(0.656 0 0 0.656 418.9896 -190.4716)">
<path style="stroke: none; stroke-width: 1; stroke-dasharray: none; stroke-linecap: butt; stroke-dashoffset: 0; stroke-linejoin: miter; stroke-miterlimit: 4; is-custom-font: none; font-file-url: none; fill: rgb(0,0,0); fill-rule: nonzero; opacity: 0.6;" transform=" translate(-326.579, -116.151)" d="M 261.226 232.302 h 261.318 L 391.93 0 H 130.614 z" stroke-linecap="round"/>
</g>
		<g transform="matrix(0.656 0 0 0.656 290.4317 -114.3061)">
<path style="stroke: none; stroke-width: 1; stroke-dasharray: none; stroke-linecap: butt; stroke-dashoffset: 0; stroke-linejoin: miter; stroke-miterlimit: 4; is-custom-font: none; font-file-url: none; fill: rgb(0,0,0); fill-rule: nonzero; opacity: 0.8;" transform=" translate(-130.613, -232.257)" d="M 130.614 464.514 l 130.612 -232.212 L 130.614 0 L 0 232.302 z" stroke-linecap="round"/>
</g>
		<g transform="matrix(0.656 0 0 0.656 419.8497 190.4631)">
<path style="stroke: none; stroke-width: 1; stroke-dasharray: none; stroke-linecap: butt; stroke-dashoffset: 0; stroke-linejoin: miter; stroke-miterlimit: 4; is-custom-font: none; font-file-url: none; fill: rgb(0,0,0); fill-rule: nonzero; opacity: 0.45;" transform=" translate(-327.89, -696.8155)" d="M 131.879 812.967 l 130.704 -232.303 h 261.318 L 393.196 812.967 H 131.879" stroke-linecap="round"/>
</g>
		<g transform="matrix(0.656 0 0 0.656 334.1324 190.4638)">
<path style="stroke: none; stroke-width: 1; stroke-dasharray: none; stroke-linecap: butt; stroke-dashoffset: 0; stroke-linejoin: miter; stroke-miterlimit: 4; is-custom-font: none; font-file-url: none; fill: rgb(0,0,0); fill-rule: nonzero; opacity: 0.6;" transform=" translate(-197.23, -696.8165)" d="M 262.582 580.665 H 1.265 l 130.613 232.303 h 261.317 z" stroke-linecap="round"/>
</g>
		<g transform="matrix(0.656 0 0 0.656 462.7242 114.2907)">
<path style="stroke: none; stroke-width: 1; stroke-dasharray: none; stroke-linecap: butt; stroke-dashoffset: 0; stroke-linejoin: miter; stroke-miterlimit: 4; is-custom-font: none; font-file-url: none; fill: rgb(0,0,0); fill-rule: nonzero; opacity: 0.8;" transform=" translate(-393.241, -580.7105)" d="M 393.196 348.453 L 262.582 580.665 l 130.614 232.303 L 523.9 580.665 z" stroke-linecap="round"/>
</g>
</g>
</g>
</svg>